<svg xmlns="http://www.w3.org/2000/svg" viewBox="0 0 96 96" shape-rendering="crispEdges">
<path fill="#BFD69B" stroke="#4F2A22" stroke-width="4" d="M18 4h60l14 14v60L78 92H18L4 78V18z"/>
<rect x="24" y="70" width="48" height="17" fill="#7B5EA6"/><rect x="18" y="78" width="60" height="9" fill="#7B5EA6"/>
<rect x="27" y="36" width="42" height="38" fill="#D49162" stroke="#4F2A22" stroke-width="4"/>
<path fill="#43332B" d="M24 31h48v8H20v22h8V43h40v18h8V31z"/><rect x="22" y="55" width="10" height="18" fill="#43332B"/><rect x="64" y="55" width="10" height="18" fill="#43332B"/>
<rect x="35" y="49" width="5" height="5" fill="#2D2020"/><rect x="56" y="49" width="5" height="5" fill="#2D2020"/>
<rect x="43" y="63" width="11" height="3" fill="#7A332D"/>
<rect x="43" y="74" width="10" height="5" fill="#D49162"/>
</svg>