<svg xmlns="http://www.w3.org/2000/svg" viewBox="0 0 160 160"><circle cx="80" cy="80" r="80" fill="#e3aed4"/><path d="M17 160q10-53 63-53t64 53" fill="#7f4e91"/><path d="M39 68q0-54 41-54 42 0 42 55l-9 47H45z" fill="#3d3438"/><ellipse cx="80" cy="72" rx="34" ry="41" fill="#d89b70"/><path d="M45 55q10-38 36-38 28 0 36 39-25-7-38-24-12 16-34 23z" fill="#3d3438"/><circle cx="68" cy="72" r="4"/><circle cx="94" cy="72" r="4"/><path d="M70 91h22" stroke="#86413f" stroke-width="4"/><path d="M50 111l30 24 30-24" fill="#fff2d1"/><rect x="119" y="24" width="25" height="35" rx="4" fill="#fff" stroke="#4a2822" stroke-width="4"/><path d="M125 34h13m-13 8h13m-13 8h8" stroke="#ef6045" stroke-width="3"/></svg>
