<svg xmlns="http://www.w3.org/2000/svg" viewBox="0 0 160 160"><circle cx="80" cy="80" r="80" fill="#79c9cf"/><path d="M12 160q10-55 68-55t69 55" fill="#7259b9"/><ellipse cx="80" cy="73" rx="35" ry="42" fill="#eeb082"/><path d="M42 57q4-43 40-43 37 0 39 43-18-15-37-14-22 0-42 14z" fill="#2d292d"/><circle cx="67" cy="73" r="4"/><circle cx="95" cy="73" r="4"/><path d="M68 92q13 8 25 0" fill="none" stroke="#934846" stroke-width="4"/><path d="M51 110l29 23 29-23" fill="#fff1d1"/><rect x="113" y="19" width="31" height="25" rx="4" fill="#fff5cd" stroke="#4a2418" stroke-width="3"/><path d="M120 27h17M120 34h12" stroke="#7259b9" stroke-width="3"/></svg>
