<svg xmlns="http://www.w3.org/2000/svg" viewBox="0 0 160 160" shape-rendering="crispEdges"><path fill="#ffd14c" d="M0 0h160v160H0z"/><path fill="#ef603f" d="M8 128h16v-16h112v16h16v32H8z"/><path fill="#ef603f" stroke="#4f2a22" stroke-width="7" d="M27 119h106v41H27z"/><path fill="#e8a270" stroke="#4f2a22" stroke-width="7" d="M34 50h92v61H34z"/><path fill="#2d2830" d="M34 38h16V22h62v12h14v32h-15V50H48v16H34z"/><path fill="#4f2a22" d="M54 68h12v12H54zm40 0h12v12H94z"/><path fill="#fff" d="M54 68h5v5h-5zm40 0h5v5h-5z"/><path fill="#fff5d5" stroke="#9d4438" stroke-width="5" d="M55 88h50v13H55z"/><path fill="#ffd14c" d="M43 132h74v13H43z"/><path fill="#ef4a3e" stroke="#4f2a22" stroke-width="4" d="M124 20h20v20h-20z"/></svg>
