<svg xmlns="http://www.w3.org/2000/svg" viewBox="0 0 160 160"><circle cx="80" cy="80" r="80" fill="#ffaaa7"/><path d="M18 160q9-52 62-52t63 52" fill="#34a489"/><path d="M37 70q1-56 43-56 44 0 44 58l-10 45H44z" fill="#6b3b2e"/><ellipse cx="80" cy="73" rx="34" ry="41" fill="#f0b083"/><path d="M44 56q12-39 36-39 29 0 37 40-23-5-38-24-12 18-35 23z" fill="#6b3b2e"/><circle cx="68" cy="73" r="4"/><circle cx="94" cy="73" r="4"/><path d="M68 91q13 10 25 0" fill="#fff" stroke="#9b4945" stroke-width="4"/><path d="M54 111l26 21 27-21" fill="#ffd95f"/><circle cx="127" cy="42" r="15" fill="#fff2a3" stroke="#4b2923" stroke-width="4"/><text x="127" y="48" text-anchor="middle" font-family="Arial" font-size="17" font-weight="900" fill="#e5533e">%</text></svg>
