<svg xmlns="http://www.w3.org/2000/svg" viewBox="0 0 160 160"><circle cx="80" cy="80" r="80" fill="#705878"/><path d="M14 160q11-56 66-56t68 56" fill="#2f3f55"/><ellipse cx="80" cy="71" rx="36" ry="41" fill="#d79a70"/><path d="M40 55q5-43 41-43 37 0 41 44-24-9-40-23-16 15-42 22z" fill="#24252d"/><path d="M47 62h66v30H47z" fill="#3a3039" opacity=".84"/><circle cx="67" cy="74" r="4" fill="#fff"/><circle cx="95" cy="74" r="4" fill="#fff"/><path d="M70 93q11 5 22 0" fill="none" stroke="#773d39" stroke-width="4"/><path d="M48 108l32 26 33-26" fill="#475873"/><circle cx="128" cy="34" r="18" fill="#fff0c7" stroke="#4a2822" stroke-width="4"/><path d="M128 23v12l8 4" stroke="#e85745" stroke-width="4"/></svg>
