<svg xmlns="http://www.w3.org/2000/svg" viewBox="0 0 160 160"><circle cx="80" cy="80" r="80" fill="#f38b68"/><path d="M18 160q9-51 62-51t62 51" fill="#22a89c"/><ellipse cx="80" cy="73" rx="35" ry="40" fill="#d99569"/><path d="M41 56q4-44 40-44 35 0 40 41-20-9-32-22-19 18-48 25z" fill="#28252a"/><path d="M51 19l41-10 17 24-54 5z" fill="#4c65a1" stroke="#3d2928" stroke-width="4"/><circle cx="67" cy="73" r="4"/><circle cx="94" cy="73" r="4"/><path d="M68 91q13 5 25-1" fill="none" stroke="#84413d" stroke-width="4"/><path d="M55 111l25 18 25-18" fill="#fff0d0"/><circle cx="132" cy="114" r="15" fill="#fff" stroke="#4a2822" stroke-width="4"/><path d="M132 105v10l7 4" stroke="#ec5644" stroke-width="3"/></svg>
