<svg xmlns="http://www.w3.org/2000/svg" viewBox="0 0 160 160"><circle cx="80" cy="80" r="80" fill="#a9d97c"/><path d="M15 160q9-54 65-54t65 54" fill="#f08072"/><path d="M35 71q2-56 45-56t46 57l-12 45H45z" fill="#332a27"/><ellipse cx="80" cy="74" rx="34" ry="41" fill="#efb486"/><path d="M43 55q13-38 38-38 27 0 38 39-28-4-42-22-10 15-34 21z" fill="#332a27"/><circle cx="68" cy="74" r="4"/><circle cx="94" cy="74" r="4"/><path d="M70 93q10 7 20 0" fill="none" stroke="#994946" stroke-width="4"/><path d="M53 111l27 22 28-22" fill="#fff3d1"/><circle cx="128" cy="34" r="11" fill="#ffd24e" stroke="#4a2418" stroke-width="3"/><path d="M123 34h10M128 29v10" stroke="#4a2418" stroke-width="2"/></svg>
